<svg xmlns="http://www.w3.org/2000/svg" xmlns:xlink="http://www.w3.org/1999/xlink" width="200" zoomAndPan="magnify" viewBox="0 0 150 37.5" height="50" preserveAspectRatio="xMidYMid meet" version="1.0"><defs><g/></defs><g fill="#ff6214" fill-opacity="1"><g transform="translate(1.301195, 31.890773)"><g><path d="M 17.9375 -27.546875 L 17.9375 -22.03125 L 8.28125 -22.03125 L 8.28125 -16.5625 L 17.203125 -16.5625 L 17.203125 -11.046875 L 8.28125 -11.046875 L 8.28125 0 L 2 0 L 2 -27.546875 Z M 17.9375 -27.546875 "/></g></g></g><g fill="#ffffff" fill-opacity="1"><g transform="translate(18.971835, 31.890773)"><g><path d="M 24.78125 0 L 23.46875 -16.328125 L 23.3125 -16.328125 L 17.65625 -0.171875 L 13.921875 -0.171875 L 8.28125 -16.328125 L 8.109375 -16.328125 L 6.8125 0 L 0.53125 0 L 3 -27.546875 L 9.6875 -27.546875 L 15.796875 -11.65625 L 21.90625 -27.546875 L 28.578125 -27.546875 L 31.046875 0 Z M 24.78125 0 "/></g></g></g><g fill="#ffffff" fill-opacity="1"><g transform="translate(49.286736, 31.890773)"><g><path d="M 19.328125 -7.75 L 6.90625 -7.75 C 6.90625 -6.539062 7.296875 -5.644531 8.078125 -5.0625 C 8.859375 -4.488281 9.707031 -4.203125 10.625 -4.203125 C 11.570312 -4.203125 12.320312 -4.328125 12.875 -4.578125 C 13.4375 -4.835938 14.078125 -5.347656 14.796875 -6.109375 L 19.0625 -3.96875 C 17.28125 -0.988281 14.320312 0.5 10.1875 0.5 C 7.601562 0.5 5.382812 -0.382812 3.53125 -2.15625 C 1.6875 -3.925781 0.765625 -6.054688 0.765625 -8.546875 C 0.765625 -11.035156 1.6875 -13.171875 3.53125 -14.953125 C 5.382812 -16.734375 7.601562 -17.625 10.1875 -17.625 C 12.894531 -17.625 15.097656 -16.835938 16.796875 -15.265625 C 18.503906 -13.703125 19.359375 -11.460938 19.359375 -8.546875 C 19.359375 -8.148438 19.347656 -7.882812 19.328125 -7.75 Z M 7.078125 -11.015625 L 13.59375 -11.015625 C 13.457031 -11.910156 13.101562 -12.597656 12.53125 -13.078125 C 11.96875 -13.554688 11.238281 -13.796875 10.34375 -13.796875 C 9.363281 -13.796875 8.582031 -13.535156 8 -13.015625 C 7.425781 -12.503906 7.117188 -11.835938 7.078125 -11.015625 Z M 7.078125 -11.015625 "/></g></g></g><g fill="#ffffff" fill-opacity="1"><g transform="translate(68.149972, 31.890773)"><g><path d="M 2 0 L 2 -17.125 L 7.90625 -17.125 L 7.90625 -15.328125 L 7.984375 -15.328125 C 9.515625 -16.859375 11.148438 -17.625 12.890625 -17.625 C 13.734375 -17.625 14.570312 -17.515625 15.40625 -17.296875 C 16.238281 -17.078125 17.039062 -16.734375 17.8125 -16.265625 C 18.582031 -15.796875 19.207031 -15.128906 19.6875 -14.265625 C 20.164062 -13.410156 20.40625 -12.414062 20.40625 -11.28125 L 20.40625 0 L 14.484375 0 L 14.484375 -9.6875 C 14.484375 -10.570312 14.195312 -11.347656 13.625 -12.015625 C 13.0625 -12.679688 12.328125 -13.015625 11.421875 -13.015625 C 10.523438 -13.015625 9.710938 -12.671875 8.984375 -11.984375 C 8.265625 -11.296875 7.90625 -10.53125 7.90625 -9.6875 L 7.90625 0 Z M 2 0 "/></g></g></g><g fill="#ffffff" fill-opacity="1"><g transform="translate(88.949638, 31.890773)"><g><path d="M 3 -17.125 L 3 -23.5 L 8.921875 -23.5 L 8.921875 -17.125 L 12.515625 -17.125 L 12.515625 -12.625 L 8.921875 -12.625 L 8.921875 -7.171875 C 8.921875 -5.597656 9.363281 -4.8125 10.25 -4.8125 C 10.46875 -4.8125 10.695312 -4.851562 10.9375 -4.9375 C 11.1875 -5.03125 11.378906 -5.117188 11.515625 -5.203125 L 11.71875 -5.34375 L 13.1875 -0.5625 C 11.914062 0.144531 10.46875 0.5 8.84375 0.5 C 7.726562 0.5 6.769531 0.304688 5.96875 -0.078125 C 5.175781 -0.472656 4.570312 -1 4.15625 -1.65625 C 3.75 -2.3125 3.453125 -3 3.265625 -3.71875 C 3.085938 -4.445312 3 -5.222656 3 -6.046875 L 3 -12.625 L 0.53125 -12.625 L 0.53125 -17.125 Z M 3 -17.125 "/></g></g></g><g fill="#ffffff" fill-opacity="1"><g transform="translate(100.868414, 31.890773)"><g><path d="M 3.625 -2.03125 C 1.71875 -3.726562 0.765625 -5.898438 0.765625 -8.546875 C 0.765625 -11.191406 1.753906 -13.363281 3.734375 -15.0625 C 5.722656 -16.769531 8.171875 -17.625 11.078125 -17.625 C 13.953125 -17.625 16.375 -16.765625 18.34375 -15.046875 C 20.3125 -13.335938 21.296875 -11.171875 21.296875 -8.546875 C 21.296875 -5.921875 20.332031 -3.753906 18.40625 -2.046875 C 16.488281 -0.347656 14.046875 0.5 11.078125 0.5 C 8.015625 0.5 5.53125 -0.34375 3.625 -2.03125 Z M 8.1875 -11.453125 C 7.425781 -10.691406 7.046875 -9.722656 7.046875 -8.546875 C 7.046875 -7.367188 7.410156 -6.40625 8.140625 -5.65625 C 8.878906 -4.914062 9.847656 -4.546875 11.046875 -4.546875 C 12.203125 -4.546875 13.15625 -4.921875 13.90625 -5.671875 C 14.65625 -6.429688 15.03125 -7.390625 15.03125 -8.546875 C 15.03125 -9.722656 14.644531 -10.691406 13.875 -11.453125 C 13.101562 -12.210938 12.160156 -12.59375 11.046875 -12.59375 C 9.910156 -12.59375 8.957031 -12.210938 8.1875 -11.453125 Z M 8.1875 -11.453125 "/></g></g></g><g fill="#ffffff" fill-opacity="1"><g transform="translate(121.66808, 31.890773)"><g><path d="M 2 0 L 2 -17.125 L 7.90625 -17.125 L 7.90625 -14.65625 L 7.984375 -14.65625 C 8.023438 -14.75 8.09375 -14.859375 8.1875 -14.984375 C 8.289062 -15.117188 8.507812 -15.351562 8.84375 -15.6875 C 9.175781 -16.019531 9.53125 -16.320312 9.90625 -16.59375 C 10.289062 -16.863281 10.78125 -17.101562 11.375 -17.3125 C 11.976562 -17.519531 12.59375 -17.625 13.21875 -17.625 C 13.863281 -17.625 14.5 -17.535156 15.125 -17.359375 C 15.75 -17.179688 16.207031 -17.003906 16.5 -16.828125 L 16.96875 -16.5625 L 14.484375 -11.546875 C 13.753906 -12.171875 12.734375 -12.484375 11.421875 -12.484375 C 10.703125 -12.484375 10.085938 -12.328125 9.578125 -12.015625 C 9.066406 -11.703125 8.707031 -11.320312 8.5 -10.875 C 8.289062 -10.4375 8.140625 -10.0625 8.046875 -9.75 C 7.953125 -9.4375 7.90625 -9.191406 7.90625 -9.015625 L 7.90625 0 Z M 2 0 "/></g></g></g><g fill="#ffffff" fill-opacity="1"><g transform="translate(137.025696, 31.890773)"><g><path d="M 5.8125 -7.140625 C 6.875 -7.140625 7.78125 -6.765625 8.53125 -6.015625 C 9.28125 -5.273438 9.65625 -4.375 9.65625 -3.3125 C 9.65625 -2.257812 9.28125 -1.359375 8.53125 -0.609375 C 7.78125 0.128906 6.875 0.5 5.8125 0.5 C 4.757812 0.5 3.859375 0.128906 3.109375 -0.609375 C 2.367188 -1.359375 2 -2.257812 2 -3.3125 C 2 -4.375 2.367188 -5.273438 3.109375 -6.015625 C 3.859375 -6.765625 4.757812 -7.140625 5.8125 -7.140625 Z M 5.8125 -7.140625 "/></g></g></g></svg>